<mxfile host="app.diagrams.net" modified="2022-03-01T19:37:25.371Z" agent="5.0 (Windows NT 10.0; Win64; x64) AppleWebKit/537.36 (KHTML, like Gecko) Chrome/98.0.4758.102 Safari/537.36" etag="jof9b0zeiLTZld_g95zU" version="16.6.4" type="github">
  <diagram id="AKfI4c0ulszgOo2Bcc6o" name="Page-1">
    <mxGraphModel dx="2302" dy="1122" grid="1" gridSize="10" guides="1" tooltips="1" connect="1" arrows="1" fold="1" page="1" pageScale="1" pageWidth="850" pageHeight="1100" math="0" shadow="0">
      <root>
        <mxCell id="0" />
        <mxCell id="1" parent="0" />
        <mxCell id="g4I0UQG93zWOhLgiDqNm-1" value="&lt;b&gt;USER&lt;/b&gt;" style="text;html=1;strokeColor=none;fillColor=none;align=center;verticalAlign=middle;whiteSpace=wrap;rounded=0;" vertex="1" parent="1">
          <mxGeometry x="10" y="10" width="60" height="30" as="geometry" />
        </mxCell>
        <mxCell id="g4I0UQG93zWOhLgiDqNm-2" value="&lt;b&gt;ROLE&lt;/b&gt;" style="text;html=1;strokeColor=none;fillColor=none;align=center;verticalAlign=middle;whiteSpace=wrap;rounded=0;" vertex="1" parent="1">
          <mxGeometry x="10" y="140" width="60" height="30" as="geometry" />
        </mxCell>
        <mxCell id="g4I0UQG93zWOhLgiDqNm-3" value="&lt;b&gt;USER_ROLES&lt;/b&gt;" style="text;html=1;strokeColor=none;fillColor=none;align=center;verticalAlign=middle;whiteSpace=wrap;rounded=0;" vertex="1" parent="1">
          <mxGeometry x="260" y="140" width="90" height="30" as="geometry" />
        </mxCell>
        <mxCell id="g4I0UQG93zWOhLgiDqNm-4" value="&lt;b&gt;SELLING&lt;/b&gt;" style="text;html=1;strokeColor=none;fillColor=none;align=center;verticalAlign=middle;whiteSpace=wrap;rounded=0;" vertex="1" parent="1">
          <mxGeometry x="15" y="620" width="60" height="30" as="geometry" />
        </mxCell>
        <mxCell id="g4I0UQG93zWOhLgiDqNm-5" value="&lt;b&gt;CONTACT_INFORMATION&lt;/b&gt;" style="text;html=1;strokeColor=none;fillColor=none;align=center;verticalAlign=middle;whiteSpace=wrap;rounded=0;" vertex="1" parent="1">
          <mxGeometry x="20" y="510" width="150" height="30" as="geometry" />
        </mxCell>
        <mxCell id="g4I0UQG93zWOhLgiDqNm-6" value="&lt;b&gt;CAMPUS&lt;/b&gt;" style="text;html=1;strokeColor=none;fillColor=none;align=center;verticalAlign=middle;whiteSpace=wrap;rounded=0;" vertex="1" parent="1">
          <mxGeometry x="10" y="390" width="70" height="30" as="geometry" />
        </mxCell>
        <mxCell id="g4I0UQG93zWOhLgiDqNm-7" value="&lt;b&gt;SCHOOL&lt;/b&gt;" style="text;html=1;strokeColor=none;fillColor=none;align=center;verticalAlign=middle;whiteSpace=wrap;rounded=0;" vertex="1" parent="1">
          <mxGeometry x="10" y="270" width="70" height="30" as="geometry" />
        </mxCell>
        <mxCell id="g4I0UQG93zWOhLgiDqNm-8" value="&lt;b&gt;COURSE&lt;/b&gt;" style="text;html=1;strokeColor=none;fillColor=none;align=center;verticalAlign=middle;whiteSpace=wrap;rounded=0;" vertex="1" parent="1">
          <mxGeometry x="340" y="270" width="70" height="30" as="geometry" />
        </mxCell>
        <mxCell id="g4I0UQG93zWOhLgiDqNm-9" value="&lt;b&gt;CATEGORY&lt;/b&gt;" style="text;html=1;strokeColor=none;fillColor=none;align=center;verticalAlign=middle;whiteSpace=wrap;rounded=0;" vertex="1" parent="1">
          <mxGeometry x="15" y="910" width="80" height="30" as="geometry" />
        </mxCell>
        <mxCell id="g4I0UQG93zWOhLgiDqNm-10" value="&lt;b&gt;POST_CATEGORIES&lt;/b&gt;" style="text;html=1;strokeColor=none;fillColor=none;align=center;verticalAlign=middle;whiteSpace=wrap;rounded=0;" vertex="1" parent="1">
          <mxGeometry x="200" y="910" width="130" height="30" as="geometry" />
        </mxCell>
        <mxCell id="g4I0UQG93zWOhLgiDqNm-11" value="" style="shape=table;startSize=0;container=1;collapsible=0;childLayout=tableLayout;" vertex="1" parent="1">
          <mxGeometry x="20" y="40" width="600" height="30" as="geometry" />
        </mxCell>
        <mxCell id="g4I0UQG93zWOhLgiDqNm-12" value="" style="shape=tableRow;horizontal=0;startSize=0;swimlaneHead=0;swimlaneBody=0;top=0;left=0;bottom=0;right=0;collapsible=0;dropTarget=0;fillColor=none;points=[[0,0.5],[1,0.5]];portConstraint=eastwest;" vertex="1" parent="g4I0UQG93zWOhLgiDqNm-11">
          <mxGeometry width="600" height="30" as="geometry" />
        </mxCell>
        <mxCell id="g4I0UQG93zWOhLgiDqNm-13" value="&lt;u&gt;ID (PK)&lt;/u&gt;" style="shape=partialRectangle;html=1;whiteSpace=wrap;connectable=0;overflow=hidden;fillColor=none;top=0;left=0;bottom=0;right=0;pointerEvents=1;" vertex="1" parent="g4I0UQG93zWOhLgiDqNm-12">
          <mxGeometry width="109" height="30" as="geometry">
            <mxRectangle width="109" height="30" as="alternateBounds" />
          </mxGeometry>
        </mxCell>
        <mxCell id="g4I0UQG93zWOhLgiDqNm-14" value="Email" style="shape=partialRectangle;html=1;whiteSpace=wrap;connectable=0;overflow=hidden;fillColor=none;top=0;left=0;bottom=0;right=0;pointerEvents=1;" vertex="1" parent="g4I0UQG93zWOhLgiDqNm-12">
          <mxGeometry x="109" width="104" height="30" as="geometry">
            <mxRectangle width="104" height="30" as="alternateBounds" />
          </mxGeometry>
        </mxCell>
        <mxCell id="g4I0UQG93zWOhLgiDqNm-15" value="UserName" style="shape=partialRectangle;html=1;whiteSpace=wrap;connectable=0;overflow=hidden;fillColor=none;top=0;left=0;bottom=0;right=0;pointerEvents=1;" vertex="1" parent="g4I0UQG93zWOhLgiDqNm-12">
          <mxGeometry x="213" width="126" height="30" as="geometry">
            <mxRectangle width="126" height="30" as="alternateBounds" />
          </mxGeometry>
        </mxCell>
        <mxCell id="g4I0UQG93zWOhLgiDqNm-16" value="PasswordHash" style="shape=partialRectangle;html=1;whiteSpace=wrap;connectable=0;overflow=hidden;fillColor=none;top=0;left=0;bottom=0;right=0;pointerEvents=1;" vertex="1" parent="g4I0UQG93zWOhLgiDqNm-12">
          <mxGeometry x="339" width="87" height="30" as="geometry">
            <mxRectangle width="87" height="30" as="alternateBounds" />
          </mxGeometry>
        </mxCell>
        <mxCell id="g4I0UQG93zWOhLgiDqNm-17" value="SchoolID (FK)" style="shape=partialRectangle;html=1;whiteSpace=wrap;connectable=0;overflow=hidden;fillColor=none;top=0;left=0;bottom=0;right=0;pointerEvents=1;" vertex="1" parent="g4I0UQG93zWOhLgiDqNm-12">
          <mxGeometry x="426" width="87" height="30" as="geometry">
            <mxRectangle width="87" height="30" as="alternateBounds" />
          </mxGeometry>
        </mxCell>
        <mxCell id="g4I0UQG93zWOhLgiDqNm-18" value="CampusId (FK)" style="shape=partialRectangle;html=1;whiteSpace=wrap;connectable=0;overflow=hidden;fillColor=none;top=0;left=0;bottom=0;right=0;pointerEvents=1;" vertex="1" parent="g4I0UQG93zWOhLgiDqNm-12">
          <mxGeometry x="513" width="87" height="30" as="geometry">
            <mxRectangle width="87" height="30" as="alternateBounds" />
          </mxGeometry>
        </mxCell>
        <mxCell id="g4I0UQG93zWOhLgiDqNm-19" value="" style="shape=table;startSize=0;container=1;collapsible=0;childLayout=tableLayout;" vertex="1" parent="1">
          <mxGeometry x="20" y="170" width="120" height="30" as="geometry" />
        </mxCell>
        <mxCell id="g4I0UQG93zWOhLgiDqNm-20" value="" style="shape=tableRow;horizontal=0;startSize=0;swimlaneHead=0;swimlaneBody=0;top=0;left=0;bottom=0;right=0;collapsible=0;dropTarget=0;fillColor=none;points=[[0,0.5],[1,0.5]];portConstraint=eastwest;" vertex="1" parent="g4I0UQG93zWOhLgiDqNm-19">
          <mxGeometry width="120" height="30" as="geometry" />
        </mxCell>
        <mxCell id="g4I0UQG93zWOhLgiDqNm-21" value="&lt;u&gt;ID (PK)&lt;/u&gt;" style="shape=partialRectangle;html=1;whiteSpace=wrap;connectable=0;overflow=hidden;fillColor=none;top=0;left=0;bottom=0;right=0;pointerEvents=1;" vertex="1" parent="g4I0UQG93zWOhLgiDqNm-20">
          <mxGeometry width="60" height="30" as="geometry">
            <mxRectangle width="60" height="30" as="alternateBounds" />
          </mxGeometry>
        </mxCell>
        <mxCell id="g4I0UQG93zWOhLgiDqNm-22" value="Name" style="shape=partialRectangle;html=1;whiteSpace=wrap;connectable=0;overflow=hidden;fillColor=none;top=0;left=0;bottom=0;right=0;pointerEvents=1;" vertex="1" parent="g4I0UQG93zWOhLgiDqNm-20">
          <mxGeometry x="60" width="60" height="30" as="geometry">
            <mxRectangle width="60" height="30" as="alternateBounds" />
          </mxGeometry>
        </mxCell>
        <mxCell id="g4I0UQG93zWOhLgiDqNm-23" value="" style="shape=table;startSize=0;container=1;collapsible=0;childLayout=tableLayout;points=[[0,0,0,0,0],[0,0.27,0,0,0],[0,0.5,0,0,0],[0,0.73,0,0,0],[0,1,0,0,0],[0.1,1,0,0,0],[0.17,1,0,0,0],[0.25,0,0,0,0],[0.5,0,0,0,0],[0.5,1,0,0,0],[0.75,0,0,0,0],[0.75,1,0,0,0],[1,0,0,0,0],[1,0.27,0,0,0],[1,0.5,0,0,0],[1,0.77,0,0,0],[1,1,0,0,0]];" vertex="1" parent="1">
          <mxGeometry x="260" y="170" width="150" height="30" as="geometry" />
        </mxCell>
        <mxCell id="g4I0UQG93zWOhLgiDqNm-24" value="" style="shape=tableRow;horizontal=0;startSize=0;swimlaneHead=0;swimlaneBody=0;top=0;left=0;bottom=0;right=0;collapsible=0;dropTarget=0;fillColor=none;points=[[0,0.5],[1,0.5]];portConstraint=eastwest;" vertex="1" parent="g4I0UQG93zWOhLgiDqNm-23">
          <mxGeometry width="150" height="30" as="geometry" />
        </mxCell>
        <mxCell id="g4I0UQG93zWOhLgiDqNm-25" value="&lt;u&gt;UserID (PK)&lt;/u&gt;" style="shape=partialRectangle;html=1;whiteSpace=wrap;connectable=0;overflow=hidden;fillColor=none;top=0;left=0;bottom=0;right=0;pointerEvents=1;" vertex="1" parent="g4I0UQG93zWOhLgiDqNm-24">
          <mxGeometry width="75" height="30" as="geometry">
            <mxRectangle width="75" height="30" as="alternateBounds" />
          </mxGeometry>
        </mxCell>
        <mxCell id="g4I0UQG93zWOhLgiDqNm-26" value="&lt;u&gt;RoleID (PK)&lt;/u&gt;" style="shape=partialRectangle;html=1;whiteSpace=wrap;connectable=0;overflow=hidden;fillColor=none;top=0;left=0;bottom=0;right=0;pointerEvents=1;" vertex="1" parent="g4I0UQG93zWOhLgiDqNm-24">
          <mxGeometry x="75" width="75" height="30" as="geometry">
            <mxRectangle width="75" height="30" as="alternateBounds" />
          </mxGeometry>
        </mxCell>
        <mxCell id="g4I0UQG93zWOhLgiDqNm-27" value="" style="shape=table;startSize=0;container=1;collapsible=0;childLayout=tableLayout;" vertex="1" parent="1">
          <mxGeometry x="20" y="650" width="720" height="30" as="geometry" />
        </mxCell>
        <mxCell id="g4I0UQG93zWOhLgiDqNm-28" value="" style="shape=tableRow;horizontal=0;startSize=0;swimlaneHead=0;swimlaneBody=0;top=0;left=0;bottom=0;right=0;collapsible=0;dropTarget=0;fillColor=none;points=[[0,0.5],[1,0.5]];portConstraint=eastwest;" vertex="1" parent="g4I0UQG93zWOhLgiDqNm-27">
          <mxGeometry width="720" height="30" as="geometry" />
        </mxCell>
        <mxCell id="g4I0UQG93zWOhLgiDqNm-29" value="&lt;u&gt;PostID (PK)&lt;/u&gt;" style="shape=partialRectangle;html=1;whiteSpace=wrap;connectable=0;overflow=hidden;fillColor=none;top=0;left=0;bottom=0;right=0;pointerEvents=1;" vertex="1" parent="g4I0UQG93zWOhLgiDqNm-28">
          <mxGeometry width="69" height="30" as="geometry">
            <mxRectangle width="69" height="30" as="alternateBounds" />
          </mxGeometry>
        </mxCell>
        <mxCell id="g4I0UQG93zWOhLgiDqNm-30" value="Description" style="shape=partialRectangle;html=1;whiteSpace=wrap;connectable=0;overflow=hidden;fillColor=none;top=0;left=0;bottom=0;right=0;pointerEvents=1;" vertex="1" parent="g4I0UQG93zWOhLgiDqNm-28">
          <mxGeometry x="69" width="71" height="30" as="geometry">
            <mxRectangle width="71" height="30" as="alternateBounds" />
          </mxGeometry>
        </mxCell>
        <mxCell id="g4I0UQG93zWOhLgiDqNm-31" value="Quantity" style="shape=partialRectangle;html=1;whiteSpace=wrap;connectable=0;overflow=hidden;fillColor=none;top=0;left=0;bottom=0;right=0;pointerEvents=1;" vertex="1" parent="g4I0UQG93zWOhLgiDqNm-28">
          <mxGeometry x="140" width="80" height="30" as="geometry">
            <mxRectangle width="80" height="30" as="alternateBounds" />
          </mxGeometry>
        </mxCell>
        <mxCell id="g4I0UQG93zWOhLgiDqNm-32" value="Title" style="shape=partialRectangle;html=1;whiteSpace=wrap;connectable=0;overflow=hidden;fillColor=none;top=0;left=0;bottom=0;right=0;pointerEvents=1;" vertex="1" parent="g4I0UQG93zWOhLgiDqNm-28">
          <mxGeometry x="220" width="69" height="30" as="geometry">
            <mxRectangle width="69" height="30" as="alternateBounds" />
          </mxGeometry>
        </mxCell>
        <mxCell id="g4I0UQG93zWOhLgiDqNm-33" value="Condition" style="shape=partialRectangle;html=1;whiteSpace=wrap;connectable=0;overflow=hidden;fillColor=none;top=0;left=0;bottom=0;right=0;pointerEvents=1;" vertex="1" parent="g4I0UQG93zWOhLgiDqNm-28">
          <mxGeometry x="289" width="60" height="30" as="geometry">
            <mxRectangle width="60" height="30" as="alternateBounds" />
          </mxGeometry>
        </mxCell>
        <mxCell id="g4I0UQG93zWOhLgiDqNm-65" value="CourseID (FK)" style="shape=partialRectangle;html=1;whiteSpace=wrap;connectable=0;overflow=hidden;fillColor=none;top=0;left=0;bottom=0;right=0;pointerEvents=1;" vertex="1" parent="g4I0UQG93zWOhLgiDqNm-28">
          <mxGeometry x="349" width="93" height="30" as="geometry">
            <mxRectangle width="93" height="30" as="alternateBounds" />
          </mxGeometry>
        </mxCell>
        <mxCell id="g4I0UQG93zWOhLgiDqNm-66" value="CampusID (FK)" style="shape=partialRectangle;html=1;whiteSpace=wrap;connectable=0;overflow=hidden;fillColor=none;top=0;left=0;bottom=0;right=0;pointerEvents=1;" vertex="1" parent="g4I0UQG93zWOhLgiDqNm-28">
          <mxGeometry x="442" width="93" height="30" as="geometry">
            <mxRectangle width="93" height="30" as="alternateBounds" />
          </mxGeometry>
        </mxCell>
        <mxCell id="g4I0UQG93zWOhLgiDqNm-67" value="ContactID (FK)" style="shape=partialRectangle;html=1;whiteSpace=wrap;connectable=0;overflow=hidden;fillColor=none;top=0;left=0;bottom=0;right=0;pointerEvents=1;" vertex="1" parent="g4I0UQG93zWOhLgiDqNm-28">
          <mxGeometry x="535" width="92" height="30" as="geometry">
            <mxRectangle width="92" height="30" as="alternateBounds" />
          </mxGeometry>
        </mxCell>
        <mxCell id="g4I0UQG93zWOhLgiDqNm-105" value="Price" style="shape=partialRectangle;html=1;whiteSpace=wrap;connectable=0;overflow=hidden;fillColor=none;top=0;left=0;bottom=0;right=0;pointerEvents=1;" vertex="1" parent="g4I0UQG93zWOhLgiDqNm-28">
          <mxGeometry x="627" width="93" height="30" as="geometry">
            <mxRectangle width="93" height="30" as="alternateBounds" />
          </mxGeometry>
        </mxCell>
        <mxCell id="g4I0UQG93zWOhLgiDqNm-34" value="" style="shape=table;startSize=0;container=1;collapsible=0;childLayout=tableLayout;" vertex="1" parent="1">
          <mxGeometry x="20" y="300" width="180" height="30" as="geometry" />
        </mxCell>
        <mxCell id="g4I0UQG93zWOhLgiDqNm-35" value="" style="shape=tableRow;horizontal=0;startSize=0;swimlaneHead=0;swimlaneBody=0;top=0;left=0;bottom=0;right=0;collapsible=0;dropTarget=0;fillColor=none;points=[[0,0.5],[1,0.5]];portConstraint=eastwest;" vertex="1" parent="g4I0UQG93zWOhLgiDqNm-34">
          <mxGeometry width="180" height="30" as="geometry" />
        </mxCell>
        <mxCell id="g4I0UQG93zWOhLgiDqNm-36" value="&lt;u&gt;ID (PK)&lt;/u&gt;" style="shape=partialRectangle;html=1;whiteSpace=wrap;connectable=0;overflow=hidden;fillColor=none;top=0;left=0;bottom=0;right=0;pointerEvents=1;" vertex="1" parent="g4I0UQG93zWOhLgiDqNm-35">
          <mxGeometry width="60" height="30" as="geometry">
            <mxRectangle width="60" height="30" as="alternateBounds" />
          </mxGeometry>
        </mxCell>
        <mxCell id="g4I0UQG93zWOhLgiDqNm-37" value="Name" style="shape=partialRectangle;html=1;whiteSpace=wrap;connectable=0;overflow=hidden;fillColor=none;top=0;left=0;bottom=0;right=0;pointerEvents=1;" vertex="1" parent="g4I0UQG93zWOhLgiDqNm-35">
          <mxGeometry x="60" width="60" height="30" as="geometry">
            <mxRectangle width="60" height="30" as="alternateBounds" />
          </mxGeometry>
        </mxCell>
        <mxCell id="g4I0UQG93zWOhLgiDqNm-38" value="Domain" style="shape=partialRectangle;html=1;whiteSpace=wrap;connectable=0;overflow=hidden;fillColor=none;top=0;left=0;bottom=0;right=0;pointerEvents=1;" vertex="1" parent="g4I0UQG93zWOhLgiDqNm-35">
          <mxGeometry x="120" width="60" height="30" as="geometry">
            <mxRectangle width="60" height="30" as="alternateBounds" />
          </mxGeometry>
        </mxCell>
        <mxCell id="g4I0UQG93zWOhLgiDqNm-39" value="" style="shape=table;startSize=0;container=1;collapsible=0;childLayout=tableLayout;" vertex="1" parent="1">
          <mxGeometry x="20" y="420" width="340" height="30" as="geometry" />
        </mxCell>
        <mxCell id="g4I0UQG93zWOhLgiDqNm-40" value="" style="shape=tableRow;horizontal=0;startSize=0;swimlaneHead=0;swimlaneBody=0;top=0;left=0;bottom=0;right=0;collapsible=0;dropTarget=0;fillColor=none;points=[[0,0.5],[1,0.5]];portConstraint=eastwest;" vertex="1" parent="g4I0UQG93zWOhLgiDqNm-39">
          <mxGeometry width="340" height="30" as="geometry" />
        </mxCell>
        <mxCell id="g4I0UQG93zWOhLgiDqNm-41" value="&lt;u&gt;ID (PK)&lt;/u&gt;" style="shape=partialRectangle;html=1;whiteSpace=wrap;connectable=0;overflow=hidden;fillColor=none;top=0;left=0;bottom=0;right=0;pointerEvents=1;" vertex="1" parent="g4I0UQG93zWOhLgiDqNm-40">
          <mxGeometry width="85" height="30" as="geometry">
            <mxRectangle width="85" height="30" as="alternateBounds" />
          </mxGeometry>
        </mxCell>
        <mxCell id="g4I0UQG93zWOhLgiDqNm-42" value="Name" style="shape=partialRectangle;html=1;whiteSpace=wrap;connectable=0;overflow=hidden;fillColor=none;top=0;left=0;bottom=0;right=0;pointerEvents=1;" vertex="1" parent="g4I0UQG93zWOhLgiDqNm-40">
          <mxGeometry x="85" width="85" height="30" as="geometry">
            <mxRectangle width="85" height="30" as="alternateBounds" />
          </mxGeometry>
        </mxCell>
        <mxCell id="g4I0UQG93zWOhLgiDqNm-43" value="City" style="shape=partialRectangle;html=1;whiteSpace=wrap;connectable=0;overflow=hidden;fillColor=none;top=0;left=0;bottom=0;right=0;pointerEvents=1;" vertex="1" parent="g4I0UQG93zWOhLgiDqNm-40">
          <mxGeometry x="170" width="85" height="30" as="geometry">
            <mxRectangle width="85" height="30" as="alternateBounds" />
          </mxGeometry>
        </mxCell>
        <mxCell id="g4I0UQG93zWOhLgiDqNm-44" value="SchoolID (FK)" style="shape=partialRectangle;html=1;whiteSpace=wrap;connectable=0;overflow=hidden;fillColor=none;top=0;left=0;bottom=0;right=0;pointerEvents=1;" vertex="1" parent="g4I0UQG93zWOhLgiDqNm-40">
          <mxGeometry x="255" width="85" height="30" as="geometry">
            <mxRectangle width="85" height="30" as="alternateBounds" />
          </mxGeometry>
        </mxCell>
        <mxCell id="g4I0UQG93zWOhLgiDqNm-45" value="" style="shape=table;startSize=0;container=1;collapsible=0;childLayout=tableLayout;" vertex="1" parent="1">
          <mxGeometry x="350" y="300" width="250" height="30" as="geometry" />
        </mxCell>
        <mxCell id="g4I0UQG93zWOhLgiDqNm-46" value="" style="shape=tableRow;horizontal=0;startSize=0;swimlaneHead=0;swimlaneBody=0;top=0;left=0;bottom=0;right=0;collapsible=0;dropTarget=0;fillColor=none;points=[[0,0.5],[1,0.5]];portConstraint=eastwest;" vertex="1" parent="g4I0UQG93zWOhLgiDqNm-45">
          <mxGeometry width="250" height="30" as="geometry" />
        </mxCell>
        <mxCell id="g4I0UQG93zWOhLgiDqNm-47" value="&lt;u&gt;ID (PK)&lt;/u&gt;" style="shape=partialRectangle;html=1;whiteSpace=wrap;connectable=0;overflow=hidden;fillColor=none;top=0;left=0;bottom=0;right=0;pointerEvents=1;" vertex="1" parent="g4I0UQG93zWOhLgiDqNm-46">
          <mxGeometry width="83" height="30" as="geometry">
            <mxRectangle width="83" height="30" as="alternateBounds" />
          </mxGeometry>
        </mxCell>
        <mxCell id="g4I0UQG93zWOhLgiDqNm-48" value="&lt;u&gt;SchoolID (PK)&lt;/u&gt;" style="shape=partialRectangle;html=1;whiteSpace=wrap;connectable=0;overflow=hidden;fillColor=none;top=0;left=0;bottom=0;right=0;pointerEvents=1;" vertex="1" parent="g4I0UQG93zWOhLgiDqNm-46">
          <mxGeometry x="83" width="84" height="30" as="geometry">
            <mxRectangle width="84" height="30" as="alternateBounds" />
          </mxGeometry>
        </mxCell>
        <mxCell id="g4I0UQG93zWOhLgiDqNm-49" value="Name" style="shape=partialRectangle;html=1;whiteSpace=wrap;connectable=0;overflow=hidden;fillColor=none;top=0;left=0;bottom=0;right=0;pointerEvents=1;" vertex="1" parent="g4I0UQG93zWOhLgiDqNm-46">
          <mxGeometry x="167" width="83" height="30" as="geometry">
            <mxRectangle width="83" height="30" as="alternateBounds" />
          </mxGeometry>
        </mxCell>
        <mxCell id="g4I0UQG93zWOhLgiDqNm-50" value="" style="shape=table;startSize=0;container=1;collapsible=0;childLayout=tableLayout;" vertex="1" parent="1">
          <mxGeometry x="20" y="940" width="120" height="30" as="geometry" />
        </mxCell>
        <mxCell id="g4I0UQG93zWOhLgiDqNm-51" value="" style="shape=tableRow;horizontal=0;startSize=0;swimlaneHead=0;swimlaneBody=0;top=0;left=0;bottom=0;right=0;collapsible=0;dropTarget=0;fillColor=none;points=[[0,0.5],[1,0.5]];portConstraint=eastwest;" vertex="1" parent="g4I0UQG93zWOhLgiDqNm-50">
          <mxGeometry width="120" height="30" as="geometry" />
        </mxCell>
        <mxCell id="g4I0UQG93zWOhLgiDqNm-52" value="&lt;u&gt;ID (PK)&lt;/u&gt;" style="shape=partialRectangle;html=1;whiteSpace=wrap;connectable=0;overflow=hidden;fillColor=none;top=0;left=0;bottom=0;right=0;pointerEvents=1;" vertex="1" parent="g4I0UQG93zWOhLgiDqNm-51">
          <mxGeometry width="60" height="30" as="geometry">
            <mxRectangle width="60" height="30" as="alternateBounds" />
          </mxGeometry>
        </mxCell>
        <mxCell id="g4I0UQG93zWOhLgiDqNm-53" value="Name" style="shape=partialRectangle;html=1;whiteSpace=wrap;connectable=0;overflow=hidden;fillColor=none;top=0;left=0;bottom=0;right=0;pointerEvents=1;" vertex="1" parent="g4I0UQG93zWOhLgiDqNm-51">
          <mxGeometry x="60" width="60" height="30" as="geometry">
            <mxRectangle width="60" height="30" as="alternateBounds" />
          </mxGeometry>
        </mxCell>
        <mxCell id="g4I0UQG93zWOhLgiDqNm-54" value="" style="shape=table;startSize=0;container=1;collapsible=0;childLayout=tableLayout;" vertex="1" parent="1">
          <mxGeometry x="210" y="940" width="200" height="30" as="geometry" />
        </mxCell>
        <mxCell id="g4I0UQG93zWOhLgiDqNm-55" value="" style="shape=tableRow;horizontal=0;startSize=0;swimlaneHead=0;swimlaneBody=0;top=0;left=0;bottom=0;right=0;collapsible=0;dropTarget=0;fillColor=none;points=[[0,0.5],[1,0.5]];portConstraint=eastwest;" vertex="1" parent="g4I0UQG93zWOhLgiDqNm-54">
          <mxGeometry width="200" height="30" as="geometry" />
        </mxCell>
        <mxCell id="g4I0UQG93zWOhLgiDqNm-56" value="&lt;u&gt;CategoryID (PK)&lt;/u&gt;" style="shape=partialRectangle;html=1;whiteSpace=wrap;connectable=0;overflow=hidden;fillColor=none;top=0;left=0;bottom=0;right=0;pointerEvents=1;" vertex="1" parent="g4I0UQG93zWOhLgiDqNm-55">
          <mxGeometry width="100" height="30" as="geometry">
            <mxRectangle width="100" height="30" as="alternateBounds" />
          </mxGeometry>
        </mxCell>
        <mxCell id="g4I0UQG93zWOhLgiDqNm-57" value="&lt;u&gt;PostID (PK)&lt;/u&gt;" style="shape=partialRectangle;html=1;whiteSpace=wrap;connectable=0;overflow=hidden;fillColor=none;top=0;left=0;bottom=0;right=0;pointerEvents=1;" vertex="1" parent="g4I0UQG93zWOhLgiDqNm-55">
          <mxGeometry x="100" width="100" height="30" as="geometry">
            <mxRectangle width="100" height="30" as="alternateBounds" />
          </mxGeometry>
        </mxCell>
        <mxCell id="g4I0UQG93zWOhLgiDqNm-59" value="&lt;b&gt;IMAGE&lt;/b&gt;" style="text;html=1;strokeColor=none;fillColor=none;align=center;verticalAlign=middle;whiteSpace=wrap;rounded=0;" vertex="1" parent="1">
          <mxGeometry x="480" y="910" width="60" height="30" as="geometry" />
        </mxCell>
        <mxCell id="g4I0UQG93zWOhLgiDqNm-60" value="" style="shape=table;startSize=0;container=1;collapsible=0;childLayout=tableLayout;" vertex="1" parent="1">
          <mxGeometry x="490" y="940" width="240" height="30" as="geometry" />
        </mxCell>
        <mxCell id="g4I0UQG93zWOhLgiDqNm-61" value="" style="shape=tableRow;horizontal=0;startSize=0;swimlaneHead=0;swimlaneBody=0;top=0;left=0;bottom=0;right=0;collapsible=0;dropTarget=0;fillColor=none;points=[[0,0.5],[1,0.5]];portConstraint=eastwest;" vertex="1" parent="g4I0UQG93zWOhLgiDqNm-60">
          <mxGeometry width="240" height="30" as="geometry" />
        </mxCell>
        <mxCell id="g4I0UQG93zWOhLgiDqNm-62" value="&lt;u&gt;ID (PK)&lt;/u&gt;" style="shape=partialRectangle;html=1;whiteSpace=wrap;connectable=0;overflow=hidden;fillColor=none;top=0;left=0;bottom=0;right=0;pointerEvents=1;" vertex="1" parent="g4I0UQG93zWOhLgiDqNm-61">
          <mxGeometry width="80" height="30" as="geometry">
            <mxRectangle width="80" height="30" as="alternateBounds" />
          </mxGeometry>
        </mxCell>
        <mxCell id="g4I0UQG93zWOhLgiDqNm-63" value="&lt;u&gt;PostID (PK)&lt;/u&gt;" style="shape=partialRectangle;html=1;whiteSpace=wrap;connectable=0;overflow=hidden;fillColor=none;top=0;left=0;bottom=0;right=0;pointerEvents=1;" vertex="1" parent="g4I0UQG93zWOhLgiDqNm-61">
          <mxGeometry x="80" width="80" height="30" as="geometry">
            <mxRectangle width="80" height="30" as="alternateBounds" />
          </mxGeometry>
        </mxCell>
        <mxCell id="g4I0UQG93zWOhLgiDqNm-64" value="Data" style="shape=partialRectangle;html=1;whiteSpace=wrap;connectable=0;overflow=hidden;fillColor=none;top=0;left=0;bottom=0;right=0;pointerEvents=1;" vertex="1" parent="g4I0UQG93zWOhLgiDqNm-61">
          <mxGeometry x="160" width="80" height="30" as="geometry">
            <mxRectangle width="80" height="30" as="alternateBounds" />
          </mxGeometry>
        </mxCell>
        <mxCell id="g4I0UQG93zWOhLgiDqNm-68" value="" style="shape=table;startSize=0;container=1;collapsible=0;childLayout=tableLayout;" vertex="1" parent="1">
          <mxGeometry x="20" y="540" width="434" height="30" as="geometry" />
        </mxCell>
        <mxCell id="g4I0UQG93zWOhLgiDqNm-69" value="" style="shape=tableRow;horizontal=0;startSize=0;swimlaneHead=0;swimlaneBody=0;top=0;left=0;bottom=0;right=0;collapsible=0;dropTarget=0;fillColor=none;points=[[0,0.5],[1,0.5]];portConstraint=eastwest;" vertex="1" parent="g4I0UQG93zWOhLgiDqNm-68">
          <mxGeometry width="434" height="30" as="geometry" />
        </mxCell>
        <mxCell id="g4I0UQG93zWOhLgiDqNm-70" value="&lt;u&gt;ID (PK)&lt;/u&gt;" style="shape=partialRectangle;html=1;whiteSpace=wrap;connectable=0;overflow=hidden;fillColor=none;top=0;left=0;bottom=0;right=0;pointerEvents=1;" vertex="1" parent="g4I0UQG93zWOhLgiDqNm-69">
          <mxGeometry width="87" height="30" as="geometry">
            <mxRectangle width="87" height="30" as="alternateBounds" />
          </mxGeometry>
        </mxCell>
        <mxCell id="g4I0UQG93zWOhLgiDqNm-71" value="AlternateEmail" style="shape=partialRectangle;html=1;whiteSpace=wrap;connectable=0;overflow=hidden;fillColor=none;top=0;left=0;bottom=0;right=0;pointerEvents=1;" vertex="1" parent="g4I0UQG93zWOhLgiDqNm-69">
          <mxGeometry x="87" width="86" height="30" as="geometry">
            <mxRectangle width="86" height="30" as="alternateBounds" />
          </mxGeometry>
        </mxCell>
        <mxCell id="g4I0UQG93zWOhLgiDqNm-72" value="Address" style="shape=partialRectangle;html=1;whiteSpace=wrap;connectable=0;overflow=hidden;fillColor=none;top=0;left=0;bottom=0;right=0;pointerEvents=1;" vertex="1" parent="g4I0UQG93zWOhLgiDqNm-69">
          <mxGeometry x="173" width="87" height="30" as="geometry">
            <mxRectangle width="87" height="30" as="alternateBounds" />
          </mxGeometry>
        </mxCell>
        <mxCell id="g4I0UQG93zWOhLgiDqNm-73" value="Phone" style="shape=partialRectangle;html=1;whiteSpace=wrap;connectable=0;overflow=hidden;fillColor=none;top=0;left=0;bottom=0;right=0;pointerEvents=1;" vertex="1" parent="g4I0UQG93zWOhLgiDqNm-69">
          <mxGeometry x="260" width="87" height="30" as="geometry">
            <mxRectangle width="87" height="30" as="alternateBounds" />
          </mxGeometry>
        </mxCell>
        <mxCell id="g4I0UQG93zWOhLgiDqNm-75" value="UserID (FK)" style="shape=partialRectangle;html=1;whiteSpace=wrap;connectable=0;overflow=hidden;fillColor=none;top=0;left=0;bottom=0;right=0;pointerEvents=1;" vertex="1" parent="g4I0UQG93zWOhLgiDqNm-69">
          <mxGeometry x="347" width="87" height="30" as="geometry">
            <mxRectangle width="87" height="30" as="alternateBounds" />
          </mxGeometry>
        </mxCell>
        <mxCell id="g4I0UQG93zWOhLgiDqNm-94" value="&lt;b&gt;LOOKING&lt;/b&gt;" style="text;html=1;strokeColor=none;fillColor=none;align=center;verticalAlign=middle;whiteSpace=wrap;rounded=0;" vertex="1" parent="1">
          <mxGeometry x="20" y="730" width="60" height="30" as="geometry" />
        </mxCell>
        <mxCell id="g4I0UQG93zWOhLgiDqNm-95" value="" style="shape=table;startSize=0;container=1;collapsible=0;childLayout=tableLayout;" vertex="1" parent="1">
          <mxGeometry x="22" y="760" width="788" height="30" as="geometry" />
        </mxCell>
        <mxCell id="g4I0UQG93zWOhLgiDqNm-96" value="" style="shape=tableRow;horizontal=0;startSize=0;swimlaneHead=0;swimlaneBody=0;top=0;left=0;bottom=0;right=0;collapsible=0;dropTarget=0;fillColor=none;points=[[0,0.5],[1,0.5]];portConstraint=eastwest;" vertex="1" parent="g4I0UQG93zWOhLgiDqNm-95">
          <mxGeometry width="788" height="30" as="geometry" />
        </mxCell>
        <mxCell id="g4I0UQG93zWOhLgiDqNm-97" value="&lt;u&gt;PostID (PK)&lt;/u&gt;" style="shape=partialRectangle;html=1;whiteSpace=wrap;connectable=0;overflow=hidden;fillColor=none;top=0;left=0;bottom=0;right=0;pointerEvents=1;" vertex="1" parent="g4I0UQG93zWOhLgiDqNm-96">
          <mxGeometry width="67" height="30" as="geometry">
            <mxRectangle width="67" height="30" as="alternateBounds" />
          </mxGeometry>
        </mxCell>
        <mxCell id="g4I0UQG93zWOhLgiDqNm-98" value="Description" style="shape=partialRectangle;html=1;whiteSpace=wrap;connectable=0;overflow=hidden;fillColor=none;top=0;left=0;bottom=0;right=0;pointerEvents=1;" vertex="1" parent="g4I0UQG93zWOhLgiDqNm-96">
          <mxGeometry x="67" width="69" height="30" as="geometry">
            <mxRectangle width="69" height="30" as="alternateBounds" />
          </mxGeometry>
        </mxCell>
        <mxCell id="g4I0UQG93zWOhLgiDqNm-99" value="Quantity" style="shape=partialRectangle;html=1;whiteSpace=wrap;connectable=0;overflow=hidden;fillColor=none;top=0;left=0;bottom=0;right=0;pointerEvents=1;" vertex="1" parent="g4I0UQG93zWOhLgiDqNm-96">
          <mxGeometry x="136" width="77" height="30" as="geometry">
            <mxRectangle width="77" height="30" as="alternateBounds" />
          </mxGeometry>
        </mxCell>
        <mxCell id="g4I0UQG93zWOhLgiDqNm-100" value="Title" style="shape=partialRectangle;html=1;whiteSpace=wrap;connectable=0;overflow=hidden;fillColor=none;top=0;left=0;bottom=0;right=0;pointerEvents=1;" vertex="1" parent="g4I0UQG93zWOhLgiDqNm-96">
          <mxGeometry x="213" width="68" height="30" as="geometry">
            <mxRectangle width="68" height="30" as="alternateBounds" />
          </mxGeometry>
        </mxCell>
        <mxCell id="g4I0UQG93zWOhLgiDqNm-101" value="Condition" style="shape=partialRectangle;html=1;whiteSpace=wrap;connectable=0;overflow=hidden;fillColor=none;top=0;left=0;bottom=0;right=0;pointerEvents=1;" vertex="1" parent="g4I0UQG93zWOhLgiDqNm-96">
          <mxGeometry x="281" width="58" height="30" as="geometry">
            <mxRectangle width="58" height="30" as="alternateBounds" />
          </mxGeometry>
        </mxCell>
        <mxCell id="g4I0UQG93zWOhLgiDqNm-102" value="CourseID (FK)" style="shape=partialRectangle;html=1;whiteSpace=wrap;connectable=0;overflow=hidden;fillColor=none;top=0;left=0;bottom=0;right=0;pointerEvents=1;" vertex="1" parent="g4I0UQG93zWOhLgiDqNm-96">
          <mxGeometry x="339" width="90" height="30" as="geometry">
            <mxRectangle width="90" height="30" as="alternateBounds" />
          </mxGeometry>
        </mxCell>
        <mxCell id="g4I0UQG93zWOhLgiDqNm-103" value="CampusID (FK)" style="shape=partialRectangle;html=1;whiteSpace=wrap;connectable=0;overflow=hidden;fillColor=none;top=0;left=0;bottom=0;right=0;pointerEvents=1;" vertex="1" parent="g4I0UQG93zWOhLgiDqNm-96">
          <mxGeometry x="429" width="90" height="30" as="geometry">
            <mxRectangle width="90" height="30" as="alternateBounds" />
          </mxGeometry>
        </mxCell>
        <mxCell id="g4I0UQG93zWOhLgiDqNm-104" value="ContactID (FK)" style="shape=partialRectangle;html=1;whiteSpace=wrap;connectable=0;overflow=hidden;fillColor=none;top=0;left=0;bottom=0;right=0;pointerEvents=1;" vertex="1" parent="g4I0UQG93zWOhLgiDqNm-96">
          <mxGeometry x="519" width="89" height="30" as="geometry">
            <mxRectangle width="89" height="30" as="alternateBounds" />
          </mxGeometry>
        </mxCell>
        <mxCell id="g4I0UQG93zWOhLgiDqNm-107" value="MinPrice" style="shape=partialRectangle;html=1;whiteSpace=wrap;connectable=0;overflow=hidden;fillColor=none;top=0;left=0;bottom=0;right=0;pointerEvents=1;" vertex="1" parent="g4I0UQG93zWOhLgiDqNm-96">
          <mxGeometry x="608" width="90" height="30" as="geometry">
            <mxRectangle width="90" height="30" as="alternateBounds" />
          </mxGeometry>
        </mxCell>
        <mxCell id="g4I0UQG93zWOhLgiDqNm-106" value="MaxPrice" style="shape=partialRectangle;html=1;whiteSpace=wrap;connectable=0;overflow=hidden;fillColor=none;top=0;left=0;bottom=0;right=0;pointerEvents=1;" vertex="1" parent="g4I0UQG93zWOhLgiDqNm-96">
          <mxGeometry x="698" width="90" height="30" as="geometry">
            <mxRectangle width="90" height="30" as="alternateBounds" />
          </mxGeometry>
        </mxCell>
        <mxCell id="g4I0UQG93zWOhLgiDqNm-109" value="&lt;b&gt;FAVOURITES&lt;/b&gt;" style="text;html=1;strokeColor=none;fillColor=none;align=center;verticalAlign=middle;whiteSpace=wrap;rounded=0;" vertex="1" parent="1">
          <mxGeometry x="510" y="390" width="80" height="30" as="geometry" />
        </mxCell>
        <mxCell id="g4I0UQG93zWOhLgiDqNm-110" value="" style="shape=table;startSize=0;container=1;collapsible=0;childLayout=tableLayout;" vertex="1" parent="1">
          <mxGeometry x="510" y="420" width="180" height="30" as="geometry" />
        </mxCell>
        <mxCell id="g4I0UQG93zWOhLgiDqNm-111" value="" style="shape=tableRow;horizontal=0;startSize=0;swimlaneHead=0;swimlaneBody=0;top=0;left=0;bottom=0;right=0;collapsible=0;dropTarget=0;fillColor=none;points=[[0,0.5],[1,0.5]];portConstraint=eastwest;" vertex="1" parent="g4I0UQG93zWOhLgiDqNm-110">
          <mxGeometry width="180" height="30" as="geometry" />
        </mxCell>
        <mxCell id="g4I0UQG93zWOhLgiDqNm-112" value="&lt;u&gt;PostID (PK)&lt;/u&gt;" style="shape=partialRectangle;html=1;whiteSpace=wrap;connectable=0;overflow=hidden;fillColor=none;top=0;left=0;bottom=0;right=0;pointerEvents=1;" vertex="1" parent="g4I0UQG93zWOhLgiDqNm-111">
          <mxGeometry width="90" height="30" as="geometry">
            <mxRectangle width="90" height="30" as="alternateBounds" />
          </mxGeometry>
        </mxCell>
        <mxCell id="g4I0UQG93zWOhLgiDqNm-113" value="&lt;u&gt;UserID (PK)&lt;/u&gt;" style="shape=partialRectangle;html=1;whiteSpace=wrap;connectable=0;overflow=hidden;fillColor=none;top=0;left=0;bottom=0;right=0;pointerEvents=1;" vertex="1" parent="g4I0UQG93zWOhLgiDqNm-111">
          <mxGeometry x="90" width="90" height="30" as="geometry">
            <mxRectangle width="90" height="30" as="alternateBounds" />
          </mxGeometry>
        </mxCell>
        <mxCell id="g4I0UQG93zWOhLgiDqNm-114" value="" style="endArrow=classic;html=1;rounded=0;exitX=0;exitY=0.5;exitDx=0;exitDy=0;entryX=0.167;entryY=1.042;entryDx=0;entryDy=0;entryPerimeter=0;" edge="1" parent="1" source="g4I0UQG93zWOhLgiDqNm-24" target="g4I0UQG93zWOhLgiDqNm-12">
          <mxGeometry width="50" height="50" relative="1" as="geometry">
            <mxPoint x="280" y="220" as="sourcePoint" />
            <mxPoint x="230" y="130" as="targetPoint" />
            <Array as="points">
              <mxPoint x="220" y="185" />
              <mxPoint x="220" y="110" />
              <mxPoint x="120" y="110" />
            </Array>
          </mxGeometry>
        </mxCell>
        <mxCell id="g4I0UQG93zWOhLgiDqNm-115" value="" style="endArrow=classic;html=1;rounded=0;entryX=0.252;entryY=1.025;entryDx=0;entryDy=0;entryPerimeter=0;exitX=0.76;exitY=1.025;exitDx=0;exitDy=0;exitPerimeter=0;" edge="1" parent="1" source="g4I0UQG93zWOhLgiDqNm-24" target="g4I0UQG93zWOhLgiDqNm-20">
          <mxGeometry width="50" height="50" relative="1" as="geometry">
            <mxPoint x="390" y="240" as="sourcePoint" />
            <mxPoint x="330" y="190" as="targetPoint" />
            <Array as="points">
              <mxPoint x="374" y="240" />
              <mxPoint x="50" y="240" />
            </Array>
          </mxGeometry>
        </mxCell>
      </root>
    </mxGraphModel>
  </diagram>
</mxfile>
